Coordinates
nRows=9
nColumns=38

# SIMM Motion File Header:
name Coordinates
datacolumns 38
datarows 9
otherdata 1
range 0.93437000000000003000 0.94237000000000004000

Units are S.I. units (second, meters, Newtons, ...)
Angles are in degrees.

endheader
time	pelvis_tilt	pelvis_list	pelvis_rotation	pelvis_tx	pelvis_ty	pelvis_tz	hip_flexion_r	hip_adduction_r	hip_rotation_r	knee_angle_r	ankle_angle_r	subtalar_angle_r	mtp_angle_r	hip_flexion_l	hip_adduction_l	hip_rotation_l	knee_angle_l	ankle_angle_l	subtalar_angle_l	mtp_angle_l	lumbar_extension	lumbar_bending	lumbar_rotation	arm_flex_r	arm_add_r	arm_rot_r	elbow_flex_r	pro_sup_r	wrist_flex_r	wrist_dev_r	arm_flex_l	arm_add_l	arm_rot_l	elbow_flex_l	pro_sup_l	wrist_flex_l	wrist_dev_l
      0.93437000000000003000	     -5.98643549346305370000	     -0.98908746340562814000	     -0.20737367738538875000	      0.92814123201193921000	      1.08112473727156890000	     -0.32157795729063404000	     26.77503046367691700000	      4.57626687750524220000	      2.97654785510089060000	    -14.11900693003572000000	      8.76649444798494490000	      0.00000000000000000000	      0.00000000000000000000	     -6.64329877361342100000	      2.04621503943829540000	     -3.10131260500756280000	    -31.96360201878276200000	     -5.82268740216714690000	      0.00000000000000000000	      0.00000000000000000000	     -7.21745577101387160000	      2.85420946345427810000	    -10.47335976497326000000	    -41.06574707675947900000	    -21.14480974956236300000	     -6.00805626435033700000	     95.62085058699875600000	    113.27737088806292000000	      0.00000000000000000000	      0.00000000000000000000	    -16.87137165253500000000	    -15.76054771774507500000	      5.15196108627791640000	    125.58122637422746000000	    101.37587225653716000000	      0.00000000000000000000	      0.00000000000000000000
      0.93537000000000003000	     -5.96448151757831280000	     -0.99254662351517253000	     -0.23439402133753251000	      0.92824879154741835000	      1.08080583435910580000	     -0.32148616714651518000	     26.74504749398691700000	      4.59649193458036100000	      2.92200612920706250000	    -14.19430207515407500000	      8.73996289960986770000	      0.00000000000000000152	      0.00000000000000000390	     -6.58082055709663380000	      2.02521896544499750000	     -3.13763033471246850000	    -32.29545874264205500000	     -5.90599919767983210000	      0.00000000000000000052	     -0.00000000000000000085	     -7.23380928601833070000	      2.86566695680564720000	    -10.41599949413261300000	    -40.95268569360730700000	    -21.19425777205110600000	     -6.01322417659485890000	     95.62149245016125600000	    113.36440768618230000000	      0.00000000000000000029	     -0.00000000000000000149	    -16.91938594264138000000	    -15.75939715282179800000	      5.19526225024399760000	    125.50847287419059000000	    101.33227506681654000000	      0.00000000000000000026	      0.00000000000000000042
      0.93637000000000004000	     -5.94134501749601540000	     -0.99584704627357901000	     -0.26140950484723241000	      0.92835454686779195000	      1.08047977881679320000	     -0.32139559271371831000	     26.71433901766570400000	      4.61665026518412790000	      2.86937713319078340000	    -14.27580989926049800000	      8.73422504326702590000	      0.00000000000000000218	      0.00000000000000001726	     -6.51774613232558590000	      2.00483989364900370000	     -3.17217639848693980000	    -32.63024092651398400000	     -5.98634785762506280000	      0.00000000000000000151	     -0.00000000000000000222	     -7.25200129271115750000	      2.87716419829590950000	    -10.35794350323105900000	    -40.83846344900059900000	    -21.24411001378493000000	     -6.01845054508691920000	     95.62266717264618900000	    113.44984343850011000000	      0.00000000000000000043	     -0.00000000000000000521	    -16.96654743132785400000	    -15.75832581345227700000	      5.23880056740261500000	    125.43464144146421000000	    101.28732101669991000000	      0.00000000000000000086	      0.00000000000000000098
      0.93737000000000004000	     -5.91722120493628620000	     -0.99947964905566677000	     -0.28895718806078197000	      0.92845760867223748000	      1.08014711430109230000	     -0.32130557270898896000	     26.68367812829084000000	      4.63727460127224140000	      2.81847625624249830000	    -14.36430897355577400000	      8.72054021087456200000	      0.00000000000000000072	      0.00000000000000003547	     -6.45384493342221340000	      1.98458103024182160000	     -3.20561341653830120000	    -32.96793719632281500000	     -6.06370658374551930000	      0.00000000000000000234	     -0.00000000000000000271	     -7.27195102138209040000	      2.88925922476947460000	    -10.29859660636762800000	    -40.72294260750395300000	    -21.29450990943236000000	     -6.02376835342513140000	     95.62426927166617900000	    113.53356483092607000000	      0.00000000000000000080	     -0.00000000000000000928	    -17.01269054429295800000	    -15.75711714389987100000	      5.28263265627727470000	    125.35951033382615000000	    101.24124161212399000000	      0.00000000000000000122	      0.00000000000000000167
      0.93837000000000004000	     -5.89171245414620960000	     -1.00337837128634110000	     -0.31694204618499416000	      0.92855819861614153000	      1.07980834654152400000	     -0.32121618950245434000	     26.65253678147467300000	      4.65830762839325270000	      2.76936188638346350000	    -14.45953174108928300000	      8.70494448598170220000	      0.00000000000000000156	      0.00000000000000004355	     -6.38964297230238200000	      1.96449508280670650000	     -3.23784981961781200000	    -33.30831272628692100000	     -6.13809784962365600000	      0.00000000000000000337	     -0.00000000000000000364	     -7.29408304016538800000	      2.90187894822856050000	    -10.23804358815680600000	    -40.60612337978611900000	    -21.34543743760183100000	     -6.02916557162969370000	     95.62635885285044400000	    113.61550737982870000000	      0.00000000000000000151	     -0.00000000000000001225	    -17.05778347918254000000	    -15.75581973672532900000	      5.32673199033572950000	    125.28317130693068000000	    101.19416653226959000000	      0.00000000000000000148	      0.00000000000000000270
      0.93937000000000004000	     -5.86466366467197190000	     -1.00760904506048000000	     -0.34539239244014880000	      0.92865625688261955000	      1.07946378565782180000	     -0.32112737106522271000	     26.62080764246591600000	      4.67983342545277470000	      2.72204506126875060000	    -14.56146854635003500000	      8.68640857395677020000	      0.00000000000000000099	      0.00000000000000005335	     -6.32535975568442230000	      1.94449973966521950000	     -3.26895088426950540000	    -33.65122949695025800000	     -6.20948777356403260000	      0.00000000000000000392	     -0.00000000000000000500	     -7.31858065052726480000	      2.91509877687107370000	    -10.17623807315551200000	    -40.48799384679471600000	    -21.39691051055252300000	     -6.03464080345410640000	     95.62895387034763000000	    113.69559722697582000000	      0.00000000000000000256	     -0.00000000000000001528	    -17.10179170395109700000	    -15.75441887712576000000	      5.37108695020931480000	    125.20564459599358000000	    101.14626138443563000000	      0.00000000000000000174	      0.00000000000000000317
      0.94037000000000004000	     -5.83601273582484570000	     -1.01222217889630060000	     -0.37429200902978876000	      0.92875173185531712000	      1.07911352599691930000	     -0.32103909592931695000	     26.58846583653166800000	      4.70191475639886210000	      2.67652318871994100000	    -14.67008874095808800000	      8.66576482009716110000	      0.00000000000000000348	      0.00000000000000006311	     -6.26109919004046310000	      1.92452324917380930000	     -3.29893512892641330000	    -33.99659253131151400000	     -6.27780786783914110000	      0.00000000000000000403	     -0.00000000000000000590	     -7.34551290170492170000	      2.92897673582892090000	    -10.11318334867707800000	    -40.36856604182588600000	    -21.44894262598851500000	     -6.04019175484911130000	     95.63207239631357500000	    113.77376649284705000000	      0.00000000000000000381	     -0.00000000000000001842	    -17.14471213829057200000	    -15.75290547903943200000	      5.41567998280132560000	    125.12695827242787000000	    101.09769223136826000000	      0.00000000000000000172	      0.00000000000000000417
      0.94137000000000004000	     -5.80578040861226000000	     -1.01728659287273930000	     -0.40363568708454206000	      0.92884452216641533000	      1.07875753864743130000	     -0.32095131909135899000	     26.55559852661318500000	      4.72463686011948080000	      2.63278588699105050000	    -14.78540191587501500000	      8.64344251430778070000	      0.00000000000000000552	      0.00000000000000007655	     -6.19686295450069920000	      1.90447257624360790000	     -3.32783905293559370000	    -34.34434282290556000000	     -6.34296419137189100000	      0.00000000000000000380	     -0.00000000000000000692	     -7.37485920381845710000	      2.94358957139300560000	    -10.04887210749605800000	    -40.24785935017509800000	    -21.50155178211529300000	     -6.04581742846054300000	     95.63572464316114000000	    113.84994876438331000000	      0.00000000000000000584	     -0.00000000000000002087	    -17.18655245017722400000	    -15.75126282534849100000	      5.46049355452049760000	    125.04712977673840000000	    101.04862953437221000000	      0.00000000000000000154	      0.00000000000000000625
      0.94237000000000004000	     -5.77405271411564240000	     -1.02287738085951970000	     -0.43342811100177714000	      0.92893449860152966000	      1.07839568415360220000	     -0.32086397082671303000	     26.52237446701143100000	      4.74809804155390940000	      2.59082641141702340000	    -14.90744215170796100000	      8.61998906501269250000	      0.00000000000000000409	      0.00000000000000008986	     -6.13257490586740680000	      1.88424678559920670000	     -3.35571302318331230000	    -34.69444871047037500000	     -6.40484231663541250000	      0.00000000000000000305	     -0.00000000000000000786	     -7.40652776774628660000	      2.95901807943071570000	     -9.98328864798637740000	    -40.12590228468057100000	    -21.55475725563611900000	     -6.05151738091076030000	     95.63991653126321100000	    113.92407976404762000000	      0.00000000000000000780	     -0.00000000000000002446	    -17.22732996737913800000	    -15.74947207978112100000	      5.50550893404229310000	    124.96617094579885000000	    100.99924429581121000000	      0.00000000000000000183	      0.00000000000000000867
